Coordinates
version=1
nRows=24
nColumns=24
inDegrees=yes

Units are S.I. units (second, meters, Newtons, ...)
If the header above contains a line with 'inDegrees', this indicates whether rotational values are in degrees (yes) or radians (no).

endheader
time	pelvis_tilt	pelvis_list	pelvis_rotation	pelvis_tx	pelvis_ty	pelvis_tz	lumbar_extension	lumbar_bending	lumbar_rotation	arm_flex_r	arm_add_r	arm_rot_r	elbow_flex_r	pro_sup_r	wrist_flex_r	wrist_dev_r	arm_flex_l	arm_add_l	arm_rot_l	elbow_flex_l	pro_sup_l	wrist_flex_l	wrist_dev_l
      0.00000000	     -9.34837525	     -0.36387669	      4.55826523	      0.95560784	      0.86214329	      0.10316660	     -6.27344046	     -0.68881976	      3.74380116	      3.42012134	     -9.77828105	      8.33685444	     30.37171853	     78.02690896	     -8.68330638	    -24.99999983	      6.69550963	     -9.18607055	      8.81379335	     26.40259056	     83.00649091	     -3.32690379	    -24.99999983
      0.00400000	     -9.33642092	     -0.35742084	      4.55392139	      0.95556721	      0.86216260	      0.10298200	     -6.26109249	     -0.68213851	      3.74110503	      3.40642867	     -9.78039239	      8.34009506	     30.36681817	     78.02786701	     -8.68264979	    -24.99999983	      6.71920910	     -9.20132996	      8.80671422	     26.41467233	     83.00510901	     -3.33031634	    -24.99999983
      0.00800000	     -9.32880939	     -0.37686252	      4.62007703	      0.95555536	      0.86211892	      0.10309087	     -6.25496828	     -0.70966883	      3.80393835	      3.33320208	     -9.77376125	      8.38244676	     30.35058377	     78.04146102	     -8.66796018	    -24.99999983	      6.79291797	     -9.24173636	      8.76157175	     26.48885796	     82.98741739	     -3.35440758	    -24.99999983
      0.01200000	     -9.33027580	     -0.39281182	      4.68276440	      0.95537012	      0.86219648	      0.10331950	     -6.25803382	     -0.73305641	      3.86323817	      3.25939907	     -9.75048587	      8.44926531	     30.36888998	     78.06711852	     -8.63941840	    -24.99999983	      6.85609350	     -9.26479463	      8.68703615	     26.60612061	     82.93513776	     -3.40083808	    -24.99999983
      0.01600000	     -9.31894750	     -0.38549567	      4.67542413	      0.95530712	      0.86222333	      0.10314356	     -6.24633773	     -0.72519825	      3.85761510	      3.25123290	     -9.75636574	      8.45330930	     30.37096841	     78.06945577	     -8.63672243	    -24.99999983	      6.87489715	     -9.28190419	      8.67606259	     26.62169376	     82.92868788	     -3.40611244	    -24.99999983
      0.02000000	     -9.38322694	     -0.40010973	      4.61819063	      0.95453513	      0.86216431	      0.10314467	     -6.31643269	     -0.72817338	      3.80107529	      3.31484427	     -9.86691969	      8.78432195	     30.61733208	     78.25962287	     -8.36934771	    -24.99999983	      6.62612335	     -9.30523879	      8.04982324	     27.47835055	     82.29500476	     -3.86517578	    -24.99999983
      0.02400000	     -9.37072122	     -0.39297709	      4.61818036	      0.95450593	      0.86217568	      0.10298981	     -6.30343429	     -0.72147822	      3.80255113	      3.29857426	     -9.87154024	      8.78832113	     30.60799950	     78.26058882	     -8.36697152	    -24.99999983	      6.65084098	     -9.33639297	      8.03609304	     27.48463008	     82.28834380	     -3.86932696	    -24.99999983
      0.02800000	     -9.32570353	     -0.43390882	      4.59773322	      0.95517732	      0.86205827	      0.10361276	     -6.25920692	     -0.76617518	      3.77259897	      3.27349708	     -9.78187254	      9.04911048	     30.46080602	     78.37322602	     -8.08229233	    -24.99999983	      6.39514846	     -9.42629170	      7.43338857	     27.97003034	     81.50283148	     -4.08336673	    -24.99999983
      0.03200000	     -9.31366856	     -0.42579168	      4.59786915	      0.95512228	      0.86207146	      0.10343467	     -6.24672363	     -0.75837552	      3.77448068	      3.25943078	     -9.78611762	      9.05284086	     30.45575876	     78.37418933	     -8.08004120	    -24.99999983	      6.41929507	     -9.44703826	      7.42651467	     27.98092831	     81.49919891	     -4.08366590	    -24.99999983
      0.03600000	     -9.30700178	     -0.45284231	      4.68438866	      0.95507257	      0.86207467	      0.10373961	     -6.24199389	     -0.79636213	      3.85555248	      3.15962964	     -9.76050110	      9.10876067	     30.44268354	     78.39076290	     -8.05345776	    -24.99999983	      6.51869027	     -9.50530983	      7.37699822	     28.07034447	     81.46321541	     -4.08901554	    -24.99999983
      0.04000000	     -9.29296524	     -0.44393047	      4.68255994	      0.95500875	      0.86215076	      0.10360433	     -6.22720954	     -0.78790810	      3.85524745	      3.14637713	     -9.76495881	      9.11401353	     30.44387423	     78.39329357	     -8.04948004	    -24.99999983	      6.54582032	     -9.53151034	      7.36418616	     28.08815330	     81.45607649	     -4.09087242	    -24.99999983
      0.04400000	     -9.29889951	     -0.48391589	      4.77128461	      0.95485222	      0.86208360	      0.10406802	     -6.23710579	     -0.83850133	      3.93652275	      3.04742375	     -9.72135524	      9.18667969	     30.47309584	     78.42188393	     -8.01025138	    -24.99999983	      6.64463571	     -9.60054462	      7.27037298	     28.22312528	     81.39246854	     -4.10916223	    -24.99999983
      0.04800000	     -9.28927698	     -0.47639402	      4.76814758	      0.95476704	      0.86209924	      0.10390449	     -6.22723891	     -0.83081927	      3.93505006	      3.03953342	     -9.72658029	      9.19080204	     30.47771718	     78.42476806	     -8.00608003	    -24.99999983	      6.66307625	     -9.62382887	      7.25535521	     28.24019386	     81.38366661	     -4.11216200	    -24.99999983
      0.05200000	     -9.31170234	     -0.51266209	      4.67346386	      0.95463672	      0.86202904	      0.10440485	     -6.25442541	     -0.85615767	      3.83482572	      3.14350142	     -9.69916796	      9.48907123	     30.48894781	     78.64595113	     -7.46048521	    -24.99999983	      6.28952174	     -9.66450451	      6.30655221	     29.09098863	     80.26396448	     -4.25288901	    -24.99999983
      0.05600000	     -9.30091555	     -0.50576089	      4.67151010	      0.95459231	      0.86204138	      0.10422581	     -6.24323659	     -0.84924850	      3.83450753	      3.12795132	     -9.69994527	      9.49343754	     30.48597033	     78.64705944	     -7.45772193	    -24.99999983	      6.31504839	     -9.67942930	      6.29987803	     29.10204639	     80.26095754	     -4.25225856	    -24.99999983
      0.06000000	     -9.29284832	     -0.53438681	      4.75572844	      0.95462987	      0.86203866	      0.10452890	     -6.23673244	     -0.88868557	      3.91304595	      3.01419216	     -9.66954152	      9.55021508	     30.48714915	     78.66406910	     -7.42774635	    -24.99999983	      6.43432886	     -9.72346322	      6.21685422	     29.13972437	     80.22489052	     -4.25453307	    -24.99999983
      0.06400000	     -9.28199536	     -0.52650746	      4.75373781	      0.95457136	      0.86205327	      0.10437230	     -6.22546373	     -0.88090989	      3.91265301	      3.00096330	     -9.67018109	      9.55495906	     30.48967548	     78.66611216	     -7.42405782	    -24.99999983	      6.45863821	     -9.74039513	      6.20194649	     29.14703273	     80.21907953	     -4.25573221	    -24.99999983
      0.06800000	     -9.28260354	     -0.56340210	      4.86024769	      0.95439543	      0.86207066	      0.10491444	     -6.22927319	     -0.93111534	      4.01134218	      2.87732476	     -9.63614591	      9.62416655	     30.52205343	     78.69251347	     -7.38365166	    -24.99999983	      6.58732568	     -9.79899495	      6.05693240	     29.21175950	     80.15471204	     -4.27455430	    -24.99999983
      0.07200000	     -9.27099163	     -0.55831027	      4.84925126	      0.95440558	      0.86207141	      0.10468580	     -6.21721582	     -0.92493598	      4.00207741	      2.86795897	     -9.62953005	      9.62905130	     30.52937526	     78.69500586	     -7.37962641	    -24.99999983	      6.61131919	     -9.80389189	      6.04190579	     29.22379571	     80.14739556	     -4.27659531	    -24.99999983
      0.07600000	     -9.35560927	     -0.56835932	      4.82769366	      0.95324946	      0.86211298	      0.10453651	     -6.30851165	     -0.92468171	      3.98343518	      2.88645434	     -9.74599511	      9.73775687	     30.90750928	     78.83691694	     -7.06925256	    -24.99999983	      6.59654844	     -9.62786985	      5.05485634	     29.66642675	     79.51075674	     -4.40304945	    -24.99999983
      0.08000000	     -9.34617154	     -0.56274574	      4.82898092	      0.95319354	      0.86212411	      0.10439012	     -6.29881035	     -0.91944989	      3.98602644	      2.87093795	     -9.74470584	      9.74233758	     30.89808907	     78.83801500	     -7.06545392	    -24.99999983	      6.61848462	     -9.64901081	      5.04291894	     29.67653404	     79.50532897	     -4.40312855	    -24.99999983
      0.08400000	     -9.33497063	     -0.59898118	      4.91581263	      0.95323121	      0.86211678	      0.10484739	     -6.28989386	     -0.96768610	      4.06526217	      2.77349891	     -9.67939760	      9.79825120	     30.85675142	     78.85308419	     -7.03084835	    -24.99999983	      6.71358145	     -9.70581414	      4.94663921	     29.75151090	     79.45183635	     -4.41101173	    -24.99999983
      0.08800000	     -9.32510440	     -0.59389859	      4.91520751	      0.95317810	      0.86212880	      0.10471079	     -6.27980558	     -0.96286173	      4.06583180	      2.76264990	     -9.67636386	      9.80276924	     30.85423141	     78.85500170	     -7.02631974	    -24.99999983	      6.73317900	     -9.72362928	      4.92942457	     29.76412684	     79.44272230	     -4.41314609	    -24.99999983
      0.09200000	     -9.36437370	     -0.63167856	      4.86428985	      0.95271475	      0.86213185	      0.10517520	     -6.32558082	     -0.99294085	      4.00985973	      2.86296422	     -9.61978585	      9.91754677	     30.86749574	     78.98174431	     -6.64798068	    -24.99999983	      6.53781755	     -9.68064224	      3.96035670	     30.39191127	     78.63641349	     -4.52828774	    -24.99999983
